<mxfile host="app.diagrams.net" modified="2023-12-10T22:00:46.632Z" agent="Mozilla/5.0 (Macintosh; Intel Mac OS X 10_15_7) AppleWebKit/537.36 (KHTML, like Gecko) Chrome/119.0.0.0 Safari/537.36" etag="AO5Pyvo5Bk2l2uULIF-t" version="22.1.7" type="github">
  <diagram name="Page-1" id="DXuyQzh-dCe9gX4LEfJa">
    <mxGraphModel dx="1026" dy="611" grid="1" gridSize="10" guides="1" tooltips="1" connect="1" arrows="1" fold="1" page="1" pageScale="1" pageWidth="827" pageHeight="1169" math="0" shadow="0">
      <root>
        <mxCell id="0" />
        <mxCell id="1" parent="0" />
      </root>
    </mxGraphModel>
  </diagram>
</mxfile>
